<?xml version="1.0" encoding="utf-8"?>
<!-- Generator: Adobe Illustrator 16.0.0, SVG Export Plug-In . SVG Version: 6.00 Build 0)  -->
<!DOCTYPE svg PUBLIC "-//W3C//DTD SVG 1.1//EN" "http://www.w3.org/Graphics/SVG/1.1/DTD/svg11.dtd">
<svg version="1.1" id="Layer_1" xmlns="http://www.w3.org/2000/svg" xmlns:xlink="http://www.w3.org/1999/xlink" x="0px" y="0px"
	 width="1000px" height="300px" viewBox="0 0 1000 300" enable-background="new 0 0 1000 300" xml:space="preserve">
<g>
	<path fill="#F2F2F2" d="M114.959,147.889c0-5.206-1.724-9.229-5.172-12.069c-3.448-2.84-9.635-5.848-18.56-9.026
		c-18.662-5.882-32.489-12.187-41.481-18.915c-8.993-6.727-13.488-16.446-13.488-29.158c0-12.373,5.357-22.379,16.075-30.02
		c10.715-7.64,24.323-11.46,40.821-11.46c16.361,0,29.767,4.208,40.213,12.626s15.5,19.254,15.162,32.505l-0.203,0.608h-33.266
		c0-5.882-1.995-10.665-5.983-14.351c-3.99-3.684-9.5-5.527-16.531-5.527c-6.896,0-12.307,1.521-16.228,4.564
		c-3.922,3.042-5.882,6.795-5.882,11.257c0,4.328,1.978,7.794,5.933,10.396c3.955,2.604,11.375,5.866,22.262,9.787
		c16.768,5.004,29.395,11.156,37.88,18.458c8.484,7.302,12.729,17.343,12.729,30.122c0,12.982-5.055,23.141-15.162,30.477
		c-10.108,7.337-23.514,11.004-40.213,11.004c-16.77,0-31.272-4.209-43.51-12.627c-12.238-8.418-18.188-20.538-17.85-36.359
		l0.203-0.608h33.367c0,8.519,2.298,14.604,6.896,18.255c4.597,3.651,11.562,5.477,20.893,5.477c7.1,0,12.389-1.42,15.872-4.259
		C113.218,156.205,114.959,152.487,114.959,147.889z"/>
	<path fill="#F2F2F2" d="M215.974,189.167c-16.161,0-29.057-5.071-38.691-15.213c-9.636-10.142-14.453-22.853-14.453-38.134v-3.854
		c0-16.7,4.377-30.34,13.134-40.923c8.756-10.581,21.281-15.837,37.576-15.771c14.874,0,26.537,4.462,34.99,13.387
		c8.451,8.925,12.678,21.029,12.678,36.309v17.951h-62.678l-0.203,0.608c0.743,5.613,3.043,10.228,6.896,13.844
		c3.854,3.618,8.992,5.426,15.416,5.426c6.491,0,11.68-0.507,15.568-1.521c3.887-1.014,8.806-2.771,14.756-5.274l8.114,20.893
		c-4.802,3.517-11.004,6.44-18.61,8.773C232.859,188,224.695,189.167,215.974,189.167z M213.539,101.641
		c-4.936,0-8.638,1.759-11.105,5.274c-2.469,3.516-3.973,8.215-4.513,14.097l0.304,0.507h29.514v-2.637
		c0-5.543-1.15-9.803-3.448-12.779C221.99,103.129,218.407,101.641,213.539,101.641z"/>
	<path fill="#F2F2F2" d="M271.146,131.154c0-16.497,4.665-29.935,13.995-40.314c9.331-10.378,22.346-15.568,39.047-15.568
		c16.768,0,29.817,5.19,39.148,15.568c9.33,10.38,13.996,23.818,13.996,40.314v2.13c0,16.566-4.666,30.02-13.996,40.365
		c-9.331,10.345-22.313,15.517-38.945,15.517c-16.836,0-29.919-5.172-39.25-15.517c-9.33-10.345-13.995-23.799-13.995-40.365
		V131.154z M305.426,133.284c0,9.196,1.436,16.414,4.311,21.653c2.873,5.241,7.759,7.86,14.655,7.86
		c6.693,0,11.493-2.637,14.401-7.911c2.906-5.274,4.361-12.475,4.361-21.603v-2.13c0-8.925-1.455-16.075-4.361-21.45
		c-2.908-5.375-7.776-8.063-14.604-8.063c-6.762,0-11.579,2.705-14.452,8.114c-2.875,5.41-4.311,12.542-4.311,21.399V133.284z"/>
	<path fill="#F2F2F2" d="M423.986,77.3l1.318,15.416c3.583-5.477,8.012-9.752,13.286-12.83c5.273-3.076,11.155-4.615,17.646-4.615
		c10.751,0,19.151,3.483,25.203,10.446c6.05,6.965,9.077,18.053,9.077,33.266v68.053h-34.28v-68.154
		c0-6.288-1.303-10.733-3.904-13.336c-2.604-2.602-6.44-3.905-11.512-3.905c-3.179,0-6.001,0.575-8.469,1.724
		c-2.469,1.15-4.581,2.738-6.338,4.767v78.905h-34.179V77.3H423.986z"/>
	<path fill="#F2F2F2" d="M677.738,135.211l0.202,0.609c-0.677,17.309-5.798,30.527-15.364,39.655
		c-9.568,9.128-23.446,13.692-41.634,13.692c-18.255,0-33.098-5.611-44.522-16.836c-11.428-11.223-17.141-25.794-17.141-43.712
		V97.787c0-17.85,5.493-32.404,16.481-43.661c10.986-11.258,25.269-16.886,42.85-16.886c18.661,0,32.927,4.7,42.799,14.097
		c9.871,9.399,15.449,22.753,16.734,40.061l-0.203,0.608h-33.367c-0.474-9.6-2.621-16.734-6.439-21.4
		c-3.821-4.665-10.329-6.998-19.523-6.998c-7.776,0-13.895,3.128-18.357,9.381c-4.462,6.254-6.693,14.452-6.693,24.594v31.034
		c0,10.21,2.434,18.458,7.302,24.747s11.563,9.432,20.081,9.432c8.249,0,14.098-2.196,17.546-6.592
		c3.448-4.395,5.409-11.393,5.883-20.994H677.738z"/>
	<path fill="#F2F2F2" d="M727.637,90.891c3.313-4.935,7.353-8.773,12.12-11.511c4.767-2.738,10.022-4.107,15.771-4.107
		c11.359,0,20.284,3.956,26.774,11.866c6.491,7.911,9.736,20.183,9.736,36.815v63.083h-34.279V123.75
		c0-8.383-1.269-14.164-3.804-17.343c-2.535-3.177-6.407-4.767-11.612-4.767c-3.313,0-6.187,0.491-8.621,1.471
		c-2.434,0.981-4.462,2.35-6.085,4.107v79.817h-34.28V28.822h34.28V90.891z"/>
	<path fill="#F2F2F2" d="M806.542,131.154c0-16.497,4.665-29.935,13.995-40.314c9.331-10.378,22.346-15.568,39.047-15.568
		c16.768,0,29.817,5.19,39.148,15.568c9.33,10.38,13.996,23.818,13.996,40.314v2.13c0,16.566-4.666,30.02-13.996,40.365
		c-9.331,10.345-22.313,15.517-38.945,15.517c-16.836,0-29.919-5.172-39.25-15.517c-9.33-10.345-13.995-23.799-13.995-40.365
		V131.154z M840.821,133.284c0,9.196,1.436,16.414,4.311,21.653c2.873,5.241,7.759,7.86,14.655,7.86
		c6.693,0,11.493-2.637,14.401-7.911c2.906-5.274,4.361-12.475,4.361-21.603v-2.13c0-8.925-1.455-16.075-4.361-21.45
		c-2.908-5.375-7.776-8.063-14.604-8.063c-6.762,0-11.579,2.705-14.452,8.114c-2.875,5.41-4.311,12.542-4.311,21.399V133.284z"/>
	<path fill="#F2F2F2" d="M963.742,51.844h-34.381V28.822h34.381V51.844z M963.742,187.037h-34.381V77.3h34.381V187.037z"/>
</g>
<g>
	<path fill="#F2F2F2" d="M66.712,262.606c-1.055,1.529-2.976,2.955-5.763,4.278c-2.788,1.324-6.302,1.985-10.542,1.985
		c-5.467,0-9.949-1.861-13.447-5.585s-5.246-8.545-5.246-14.465v-8.62c0-5.812,1.663-10.547,4.988-14.206s7.636-5.489,12.931-5.489
		c5.058,0,9.013,1.265,11.865,3.793c2.852,2.529,4.504,5.817,4.956,9.863l-0.064,0.194h-3.584c-0.56-3.143-1.884-5.688-3.972-7.636
		s-5.154-2.922-9.201-2.922c-4.219,0-7.614,1.526-10.187,4.581c-2.572,3.054-3.858,6.969-3.858,11.743v8.679
		c0,4.903,1.367,8.925,4.101,12.065c2.733,3.14,6.307,4.71,10.719,4.71c3.121,0,5.774-0.435,7.959-1.305s3.675-1.821,4.472-2.853
		v-12.244H50.343v-3.293h16.369V262.606z"/>
	<path fill="#F2F2F2" d="M95.066,236.584l-2.873-0.193c-2.433,0-4.429,0.684-5.989,2.05c-1.561,1.367-2.675,3.245-3.342,5.634
		v24.118h-3.874v-34.934h3.39l0.484,5.812v0.387c1.012-2.151,2.367-3.831,4.068-5.036c1.7-1.205,3.724-1.809,6.069-1.809
		c0.495,0,0.974,0.038,1.438,0.113c0.462,0.076,0.844,0.156,1.146,0.242L95.066,236.584z"/>
	<path fill="#F2F2F2" d="M125.261,268.192c-0.259-1.184-0.441-2.206-0.549-3.067c-0.108-0.86-0.162-1.732-0.162-2.615
		c-1.291,1.83-3.014,3.348-5.165,4.553c-2.153,1.205-4.574,1.808-7.265,1.808c-3.401,0-6.043-0.903-7.927-2.712
		c-1.884-1.808-2.825-4.229-2.825-7.265c0-3.229,1.394-5.812,4.182-7.748c2.787-1.938,6.549-2.906,11.284-2.906h7.716v-4.326
		c0-2.497-0.802-4.456-2.405-5.876c-1.604-1.421-3.848-2.131-6.731-2.131c-2.69,0-4.924,0.678-6.699,2.034
		c-1.776,1.355-2.664,3.014-2.664,4.972l-3.552-0.032l-0.064-0.193c-0.129-2.604,1.061-4.935,3.568-6.99
		c2.507-2.056,5.698-3.084,9.572-3.084c3.853,0,6.952,0.98,9.299,2.938c2.346,1.959,3.52,4.768,3.52,8.427v17.177
		c0,1.227,0.069,2.421,0.21,3.583c0.14,1.163,0.371,2.314,0.693,3.455H125.261z M112.572,265.448c2.776,0,5.23-0.651,7.361-1.953
		c2.131-1.303,3.669-2.965,4.616-4.988v-7.297h-7.78c-3.509,0-6.313,0.748-8.411,2.244s-3.147,3.353-3.147,5.569
		c0,1.894,0.65,3.438,1.953,4.633C108.466,264.851,110.269,265.448,112.572,265.448z"/>
	<path fill="#F2F2F2" d="M168.466,251.694c0,5.23-1.184,9.4-3.552,12.511c-2.367,3.11-5.629,4.665-9.782,4.665
		c-2.454,0-4.601-0.463-6.441-1.388c-1.84-0.926-3.342-2.249-4.504-3.972v18.113h-3.874v-48.365h3.261l0.484,5.424
		c1.162-1.938,2.663-3.433,4.504-4.488c1.84-1.054,4.009-1.582,6.506-1.582c4.197,0,7.479,1.674,9.847,5.021
		c2.368,3.348,3.552,7.809,3.552,13.383V251.694z M164.592,250.968c0-4.438-0.883-8.059-2.647-10.86
		c-1.766-2.801-4.349-4.201-7.749-4.201c-2.604,0-4.72,0.619-6.345,1.858c-1.625,1.238-2.847,2.85-3.664,4.832v16.808
		c0.882,1.918,2.157,3.426,3.826,4.524c1.668,1.099,3.75,1.648,6.247,1.648c3.379,0,5.946-1.271,7.7-3.813
		c1.754-2.543,2.632-5.915,2.632-10.117V250.968z"/>
	<path fill="#F2F2F2" d="M182.679,239.231c1.162-2.088,2.712-3.713,4.649-4.875s4.197-1.744,6.78-1.744
		c3.681,0,6.506,1.142,8.475,3.423c1.97,2.281,2.954,5.822,2.954,10.622v21.535h-3.874V246.55c0-3.796-0.748-6.519-2.244-8.169
		c-1.496-1.649-3.557-2.475-6.183-2.475c-2.647,0-4.859,0.695-6.635,2.087s-3.083,3.24-3.923,5.548v24.651h-3.874v-50.367h3.874
		V239.231z"/>
	<path fill="#F2F2F2" d="M221.591,223.25h-3.842v-5.424h3.842V223.25z M221.591,268.192h-3.842v-34.934h3.842V268.192z"/>
	<path fill="#F2F2F2" d="M246.877,265.577c2.562,0,4.821-0.729,6.78-2.187s2.938-3.484,2.938-6.079h3.422l0.064,0.194
		c0.107,3.229-1.184,5.93-3.874,8.104c-2.69,2.175-5.801,3.261-9.331,3.261c-4.757,0-8.432-1.63-11.025-4.892
		c-2.594-3.261-3.891-7.452-3.891-12.575v-1.355c0-5.08,1.302-9.256,3.906-12.527s6.264-4.908,10.978-4.908
		c3.831,0,7.022,1.131,9.573,3.391s3.782,5.23,3.696,8.911l-0.064,0.193h-3.454c0-2.798-0.942-5.031-2.825-6.699
		c-1.884-1.668-4.192-2.502-6.926-2.502c-3.745,0-6.517,1.339-8.313,4.016c-1.798,2.677-2.696,6.047-2.696,10.11v1.354
		c0,4.128,0.894,7.525,2.68,10.191C240.302,264.244,243.089,265.577,246.877,265.577z"/>
	<path fill="#F2F2F2" d="M294.997,242.524c-1.744-2.152-3.035-4.116-3.875-5.892c-0.839-1.776-1.259-3.601-1.259-5.473
		c0-3.401,0.958-6.027,2.874-7.878c1.915-1.851,4.541-2.777,7.877-2.777c3.1,0,5.559,0.872,7.378,2.616
		c1.818,1.742,2.729,3.938,2.729,6.586c0,1.938-0.484,3.605-1.453,5.004c-0.969,1.399-2.368,2.799-4.197,4.197l-5.134,3.939
		l13.302,15.529c1.055-1.527,1.873-3.239,2.454-5.133c0.581-1.895,0.872-3.918,0.872-6.07h3.552c0,2.756-0.394,5.29-1.179,7.604
		c-0.786,2.314-1.921,4.407-3.406,6.279l5.973,6.975l-0.064,0.161h-4.423l-3.939-4.553c-1.83,1.68-3.831,2.971-6.005,3.875
		c-2.175,0.903-4.521,1.355-7.039,1.355c-4.499,0-8.061-1.151-10.687-3.454s-3.938-5.37-3.938-9.202c0-2.583,0.779-4.912,2.341-6.99
		c1.56-2.076,3.814-4.191,6.764-6.344L294.997,242.524z M300.033,265.577c1.98,0,3.912-0.385,5.796-1.153
		c1.883-0.77,3.578-1.87,5.085-3.302l-13.366-15.563c-0.108-0.107-0.199-0.199-0.274-0.274c-0.076-0.075-0.135-0.156-0.178-0.242
		l-1.518,1.16c-2.497,2.021-4.171,3.848-5.021,5.48c-0.851,1.634-1.275,3.138-1.275,4.513c0,2.665,0.92,4.896,2.761,6.689
		C293.883,264.681,296.547,265.577,300.033,265.577z M293.737,231.096c0,1.42,0.34,2.895,1.018,4.423s1.716,3.153,3.115,4.875
		l5.715-4.262c1.248-0.969,2.136-1.979,2.664-3.035c0.527-1.054,0.791-2.184,0.791-3.39c0-1.7-0.565-3.11-1.695-4.229
		s-2.707-1.679-4.73-1.679c-2.195,0-3.89,0.699-5.085,2.099C294.335,227.297,293.737,229.029,293.737,231.096z"/>
	<path fill="#F2F2F2" d="M373.95,255.084h-21.535l-4.843,13.108h-4.004l17.854-47.009h3.648l17.725,47.009h-4.003L373.95,255.084z
		 M353.706,251.63h18.984l-9.362-25.442h-0.194L353.706,251.63z"/>
	<path fill="#F2F2F2" d="M389.067,251.016c0-5.574,1.179-10.035,3.535-13.383c2.357-3.347,5.645-5.021,9.863-5.021
		c2.433,0,4.542,0.517,6.328,1.55c1.787,1.033,3.271,2.497,4.456,4.392v-20.728h3.842v50.367h-3.422l-0.323-5.069
		c-1.162,1.852-2.658,3.272-4.488,4.262c-1.829,0.99-3.982,1.485-6.457,1.485c-4.176,0-7.441-1.555-9.799-4.665
		c-2.356-3.11-3.535-7.28-3.535-12.511V251.016z M392.941,251.698c0,4.237,0.845,7.609,2.534,10.117
		c1.69,2.508,4.235,3.762,7.636,3.762c2.497,0,4.58-0.562,6.248-1.686s2.965-2.682,3.891-4.67v-16.474
		c-0.883-2.032-2.131-3.68-3.745-4.944c-1.614-1.266-3.725-1.897-6.328-1.897c-3.401,0-5.957,1.399-7.668,4.199
		c-1.712,2.8-2.567,6.437-2.567,10.911V251.698z"/>
	<path fill="#F2F2F2" d="M438.988,259.442l1.13,4.101h0.193l1.227-4.101l9.492-26.184h4.004l-13.27,34.934h-3.1l-13.302-34.934
		h4.003L438.988,259.442z"/>
	<path fill="#F2F2F2" d="M475.737,268.87c-4.37,0-8.002-1.614-10.897-4.843c-2.895-3.229-4.342-7.317-4.342-12.269v-1.776
		c0-4.993,1.437-9.137,4.31-12.43c2.874-3.293,6.355-4.94,10.445-4.94c4.282,0,7.651,1.356,10.105,4.068s3.681,6.328,3.681,10.849
		v3.293h-24.667v0.935c0,3.93,1.044,7.216,3.132,9.857c2.088,2.643,4.832,3.963,8.233,3.963c2.41,0,4.466-0.333,6.166-1.001
		c1.7-0.667,3.153-1.625,4.359-2.873l1.646,2.647c-1.313,1.383-2.977,2.481-4.988,3.297
		C480.908,268.463,478.514,268.87,475.737,268.87z M475.253,235.906c-2.863,0-5.263,1.089-7.2,3.268s-3.067,4.91-3.39,8.194
		l0.064,0.161h20.47v-0.967c0-3.025-0.894-5.559-2.681-7.598C480.73,236.926,478.309,235.906,475.253,235.906z"/>
	<path fill="#F2F2F2" d="M514.422,236.584l-2.873-0.193c-2.433,0-4.429,0.684-5.989,2.05c-1.561,1.367-2.675,3.245-3.342,5.634
		v24.118h-3.874v-34.934h3.39l0.484,5.812v0.387c1.012-2.151,2.367-3.831,4.068-5.036c1.7-1.205,3.724-1.809,6.069-1.809
		c0.495,0,0.974,0.038,1.438,0.113c0.462,0.076,0.844,0.156,1.146,0.242L514.422,236.584z"/>
	<path fill="#F2F2F2" d="M529.604,224.315v8.943h7.685v3.164h-7.685v22.762c0,2.281,0.414,3.901,1.243,4.859
		c0.828,0.958,1.932,1.437,3.31,1.437c0.624,0,1.231-0.027,1.824-0.081c0.592-0.054,1.275-0.146,2.05-0.274l0.581,2.874
		c-0.646,0.279-1.432,0.494-2.356,0.646c-0.926,0.15-1.852,0.226-2.776,0.226c-2.454,0-4.364-0.774-5.731-2.324
		s-2.05-4.004-2.05-7.361v-22.762h-6.038v-3.164h6.038v-8.943H529.604z"/>
	<path fill="#F2F2F2" d="M551.468,223.25h-3.842v-5.424h3.842V223.25z M551.468,268.192h-3.842v-34.934h3.842V268.192z"/>
	<path fill="#F2F2F2" d="M584.729,259.297c0-1.633-0.673-3.061-2.018-4.284c-1.346-1.224-3.772-2.223-7.28-2.996
		c-4.177-0.903-7.26-2.099-9.25-3.584c-1.991-1.484-2.986-3.583-2.986-6.295c0-2.669,1.124-4.924,3.373-6.765
		c2.249-1.84,5.226-2.761,8.928-2.761c3.938,0,7.06,0.975,9.363,2.922c2.303,1.949,3.4,4.387,3.293,7.313l-0.064,0.193h-3.584
		c0-1.915-0.813-3.584-2.438-5.004c-1.626-1.421-3.815-2.131-6.57-2.131c-2.82,0-4.935,0.605-6.345,1.814
		c-1.41,1.211-2.114,2.629-2.114,4.257c0,1.606,0.607,2.935,1.824,3.983c1.216,1.05,3.643,1.971,7.28,2.763
		c4.154,0.929,7.265,2.197,9.331,3.807c2.066,1.608,3.1,3.795,3.1,6.559c0,2.915-1.179,5.274-3.535,7.077
		c-2.357,1.803-5.473,2.704-9.348,2.704c-4.24,0-7.571-1.011-9.992-3.034c-2.422-2.023-3.567-4.435-3.438-7.232l0.064-0.194h3.552
		c0.15,2.508,1.178,4.329,3.083,5.465s4.148,1.703,6.731,1.703c2.798,0,5.005-0.612,6.619-1.836S584.729,261.036,584.729,259.297z"
		/>
	<path fill="#F2F2F2" d="M603.462,223.25h-3.842v-5.424h3.842V223.25z M603.462,268.192h-3.842v-34.934h3.842V268.192z"/>
	<path fill="#F2F2F2" d="M619.224,233.259l0.355,6.102c1.119-2.152,2.631-3.814,4.536-4.988c1.905-1.173,4.159-1.76,6.764-1.76
		c3.788,0,6.673,1.157,8.653,3.471c1.979,2.314,2.97,5.925,2.97,10.833v21.276h-3.874v-21.287c0-4.012-0.748-6.848-2.244-8.508
		c-1.496-1.661-3.621-2.491-6.376-2.491c-2.712,0-4.924,0.717-6.635,2.151c-1.712,1.435-2.944,3.338-3.697,5.71v24.425h-3.874
		v-34.934H619.224z"/>
	<path fill="#F2F2F2" d="M652.744,251.016c0-5.574,1.188-10.035,3.567-13.383c2.378-3.347,5.688-5.021,9.928-5.021
		c2.476,0,4.617,0.544,6.426,1.631c1.808,1.087,3.304,2.621,4.487,4.601l0.452-5.585h3.261v34.481c0,4.499-1.243,8.05-3.729,10.654
		c-2.486,2.604-5.946,3.907-10.381,3.907c-1.679,0-3.465-0.205-5.359-0.613c-1.895-0.409-3.551-0.969-4.972-1.68l1.001-3.261
		c1.377,0.688,2.83,1.211,4.358,1.566c1.528,0.354,3.164,0.532,4.907,0.532c3.401,0,5.968-0.979,7.7-2.938
		c1.732-1.959,2.6-4.682,2.6-8.169v-4.391c-1.185,1.765-2.68,3.127-4.488,4.084c-1.808,0.958-3.917,1.437-6.328,1.437
		c-4.197,0-7.485-1.561-9.863-4.682c-2.379-3.12-3.567-7.285-3.567-12.494V251.016z M656.618,251.698
		c0,4.216,0.86,7.583,2.583,10.102c1.722,2.519,4.283,3.777,7.685,3.777c2.496,0,4.579-0.576,6.247-1.729s2.954-2.739,3.858-4.761
		V242.88c-0.84-2.042-2.072-3.715-3.697-5.019s-3.74-1.955-6.344-1.955c-3.401,0-5.974,1.405-7.717,4.216s-2.615,6.442-2.615,10.895
		V251.698z"/>
	<path fill="#F2F2F2" d="M711.551,268.192v-47.009h13.657c5.747,0,10.493,1.917,14.238,5.748s5.617,8.749,5.617,14.755v6.037
		c0,6.027-1.872,10.945-5.617,14.755s-8.491,5.715-14.238,5.715H711.551z M715.393,224.477v40.423h9.815
		c4.648,0,8.475-1.624,11.478-4.871c3.003-3.248,4.504-7.356,4.504-12.324v-6.129c0-4.904-1.507-8.979-4.521-12.227
		c-3.014-3.248-6.834-4.872-11.461-4.872H715.393z"/>
	<path fill="#F2F2F2" d="M768.64,268.87c-4.37,0-8.002-1.614-10.897-4.843c-2.895-3.229-4.342-7.317-4.342-12.269v-1.776
		c0-4.993,1.437-9.137,4.31-12.43c2.874-3.293,6.355-4.94,10.445-4.94c4.282,0,7.651,1.356,10.105,4.068s3.681,6.328,3.681,10.849
		v3.293h-24.667v0.935c0,3.93,1.044,7.216,3.132,9.857c2.088,2.643,4.832,3.963,8.233,3.963c2.41,0,4.466-0.333,6.166-1.001
		c1.7-0.667,3.153-1.625,4.359-2.873l1.646,2.647c-1.313,1.383-2.977,2.481-4.988,3.297
		C773.811,268.463,771.416,268.87,768.64,268.87z M768.155,235.906c-2.863,0-5.263,1.089-7.2,3.268s-3.067,4.91-3.39,8.194
		l0.064,0.161h20.47v-0.967c0-3.025-0.894-5.559-2.681-7.598C773.633,236.926,771.211,235.906,768.155,235.906z"/>
	<path fill="#F2F2F2" d="M812.168,259.297c0-1.633-0.673-3.061-2.018-4.284c-1.346-1.224-3.772-2.223-7.28-2.996
		c-4.177-0.903-7.26-2.099-9.25-3.584c-1.991-1.484-2.986-3.583-2.986-6.295c0-2.669,1.124-4.924,3.373-6.765
		c2.249-1.84,5.226-2.761,8.928-2.761c3.938,0,7.06,0.975,9.363,2.922c2.303,1.949,3.4,4.387,3.293,7.313l-0.064,0.193h-3.584
		c0-1.915-0.813-3.584-2.438-5.004c-1.626-1.421-3.815-2.131-6.57-2.131c-2.82,0-4.935,0.605-6.345,1.814
		c-1.41,1.211-2.114,2.629-2.114,4.257c0,1.606,0.607,2.935,1.824,3.983c1.216,1.05,3.643,1.971,7.28,2.763
		c4.154,0.929,7.265,2.197,9.331,3.807c2.066,1.608,3.1,3.795,3.1,6.559c0,2.915-1.179,5.274-3.535,7.077
		c-2.357,1.803-5.473,2.704-9.348,2.704c-4.24,0-7.571-1.011-9.992-3.034c-2.422-2.023-3.567-4.435-3.438-7.232l0.064-0.194h3.552
		c0.15,2.508,1.178,4.329,3.083,5.465s4.148,1.703,6.731,1.703c2.798,0,5.005-0.612,6.619-1.836S812.168,261.036,812.168,259.297z"
		/>
	<path fill="#F2F2F2" d="M830.9,223.25h-3.842v-5.424h3.842V223.25z M830.9,268.192h-3.842v-34.934h3.842V268.192z"/>
	<path fill="#F2F2F2" d="M841.723,251.016c0-5.574,1.188-10.035,3.567-13.383c2.378-3.347,5.688-5.021,9.928-5.021
		c2.476,0,4.617,0.544,6.426,1.631c1.808,1.087,3.304,2.621,4.487,4.601l0.452-5.585h3.261v34.481c0,4.499-1.243,8.05-3.729,10.654
		c-2.486,2.604-5.946,3.907-10.381,3.907c-1.679,0-3.465-0.205-5.359-0.613c-1.895-0.409-3.551-0.969-4.972-1.68l1.001-3.261
		c1.377,0.688,2.83,1.211,4.358,1.566c1.528,0.354,3.164,0.532,4.907,0.532c3.401,0,5.968-0.979,7.7-2.938
		c1.732-1.959,2.6-4.682,2.6-8.169v-4.391c-1.185,1.765-2.68,3.127-4.488,4.084c-1.808,0.958-3.917,1.437-6.328,1.437
		c-4.197,0-7.485-1.561-9.863-4.682c-2.379-3.12-3.567-7.285-3.567-12.494V251.016z M845.597,251.698
		c0,4.216,0.86,7.583,2.583,10.102c1.722,2.519,4.283,3.777,7.685,3.777c2.496,0,4.579-0.576,6.247-1.729s2.954-2.739,3.858-4.761
		V242.88c-0.84-2.042-2.072-3.715-3.697-5.019s-3.74-1.955-6.344-1.955c-3.401,0-5.974,1.405-7.717,4.216s-2.615,6.442-2.615,10.895
		V251.698z"/>
	<path fill="#F2F2F2" d="M885.154,233.259l0.355,6.102c1.119-2.152,2.631-3.814,4.536-4.988c1.905-1.173,4.159-1.76,6.764-1.76
		c3.788,0,6.673,1.157,8.653,3.471c1.979,2.314,2.97,5.925,2.97,10.833v21.276h-3.874v-21.287c0-4.012-0.748-6.848-2.244-8.508
		c-1.496-1.661-3.621-2.491-6.376-2.491c-2.712,0-4.924,0.717-6.635,2.151c-1.712,1.435-2.944,3.338-3.697,5.71v24.425h-3.874
		v-34.934H885.154z"/>
	<path fill="#F2F2F2" d="M933.301,268.87c-4.37,0-8.002-1.614-10.897-4.843c-2.895-3.229-4.342-7.317-4.342-12.269v-1.776
		c0-4.993,1.437-9.137,4.31-12.43c2.874-3.293,6.355-4.94,10.445-4.94c4.282,0,7.651,1.356,10.105,4.068s3.681,6.328,3.681,10.849
		v3.293h-24.667v0.935c0,3.93,1.044,7.216,3.132,9.857c2.088,2.643,4.832,3.963,8.233,3.963c2.41,0,4.466-0.333,6.166-1.001
		c1.7-0.667,3.153-1.625,4.359-2.873l1.646,2.647c-1.313,1.383-2.977,2.481-4.988,3.297
		C938.472,268.463,936.077,268.87,933.301,268.87z M932.816,235.906c-2.863,0-5.263,1.089-7.2,3.268s-3.067,4.91-3.39,8.194
		l0.064,0.161h20.47v-0.967c0-3.025-0.894-5.559-2.681-7.598C938.294,236.926,935.872,235.906,932.816,235.906z"/>
	<path fill="#F2F2F2" d="M971.985,236.584l-2.873-0.193c-2.433,0-4.429,0.684-5.989,2.05c-1.561,1.367-2.675,3.245-3.342,5.634
		v24.118h-3.874v-34.934h3.39l0.484,5.812v0.387c1.012-2.151,2.367-3.831,4.068-5.036c1.7-1.205,3.724-1.809,6.069-1.809
		c0.495,0,0.974,0.038,1.438,0.113c0.462,0.076,0.844,0.156,1.146,0.242L971.985,236.584z"/>
</g>
<text transform="matrix(1 0 0 1 25 -156.9629)" fill="#313131" font-family="'Roboto-Black'" font-size="207.7078">Seon Choi</text>
<text transform="matrix(1 0 0 1 27 -75.8076)" fill="#313131" font-family="'Roboto-Light'" font-size="66.1227" letter-spacing="1">Graphic &amp; Advertising Designer</text>
</svg>
