<?xml version="1.0" encoding="utf-8"?>
<!-- Generator: Adobe Illustrator 16.0.0, SVG Export Plug-In . SVG Version: 6.00 Build 0)  -->
<!DOCTYPE svg PUBLIC "-//W3C//DTD SVG 1.1//EN" "http://www.w3.org/Graphics/SVG/1.1/DTD/svg11.dtd">
<svg version="1.1" id="Layer_1" xmlns="http://www.w3.org/2000/svg" xmlns:xlink="http://www.w3.org/1999/xlink" x="0px" y="0px"
	 width="1000px" height="300px" viewBox="0 0 1000 300" enable-background="new 0 0 1000 300" xml:space="preserve">
<g>
	<path fill="#636464" d="M293,7v286H7V7H293 M300,0H0v300h300V0L300,0z"/>
</g>
<g>
	<path fill="#636464" d="M106.277,66.203c1.906,1.169,2.949,1.693,4.004,1.693c1.558,0,2.144-1.805,2.671-5.238h2.736
		c-0.415,4.714-0.649,10.408-0.649,27.157H112.3c-0.801-12.39-7.5-25.349-20.217-25.349c-7.627,0-13.091,4.592-13.091,12.148
		c0,9.6,7.261,13.489,20.588,22.443c11.279,7.498,20.115,13.953,20.115,26.861c0,15.691-13.543,23.196-29.529,23.196
		c-9.897,0-15.129-2.266-19.136-4.417c-1.909-1.222-3.145-1.687-4.055-1.687c-1.595,0-2.153,1.797-2.625,5.232h-2.739
		c0.356-5.583,0.483-13.195,0.483-32.153h2.728c0.977,15.875,6.45,29.88,21.67,29.88c8.327,0,14.775-4.416,14.775-13.307
		c0-9.775-7.386-15.414-17.85-22.153C72.073,103.3,62.205,96.613,62.205,83.354c0-14.997,12.717-21.74,26.667-21.74
		C98.174,61.614,102.534,64.002,106.277,66.203z"/>
</g>
<g>
	<path fill="#636464" d="M231.429,169.998c0.752,0.6,1.433,0.902,1.994,0.902c1.434,0,2.225-1.891,2.637-6.066h2.332
		c-0.298,5.219-0.403,12.231-0.403,24.665h-2.383c-1.089-9.354-2.378-14.269-7.651-18.45c-3.381-3.285-8.057-5.026-12.891-5.026
		c-14.619,0-20.288,17.055-20.288,35.066c0,18.247,6.116,34.814,20.688,34.814c4.48,0,9.407-1.639,12.686-4.932
		c5.273-4.067,6.517-9.741,7.456-19.692h2.383c0,12.929,0.105,20.243,0.403,25.663h-2.332c-0.412-4.175-1.055-6.01-2.487-6.01
		c-0.601,0-1.297,0.297-2.144,0.845c-4.969,3.522-10.057,6.611-18.794,6.611c-21.595,0-35.957-13.574-35.957-36.9
		c0-22.778,14.87-38.101,36.045-38.101C221.675,163.388,226.948,166.569,231.429,169.998z"/>
</g>
<line fill="none" stroke="#636464" stroke-width="5" stroke-miterlimit="10" x1="238.392" y1="61.614" x2="61.611" y2="238.389"/>
<g>
	<path fill="#636464" d="M395.491,108.032h18.201v26.038c-2.833,0.903-5.713,1.587-8.643,2.051s-6.324,0.696-10.182,0.696
		c-8.105,0-14.416-2.411-18.933-7.232s-6.774-11.578-6.774-20.27c0-5.566,1.116-10.443,3.351-14.63
		c2.233-4.187,5.45-7.385,9.649-9.595c4.199-2.209,9.119-3.314,14.758-3.314c5.713,0,11.035,1.05,15.967,3.149l-2.416,5.493
		c-4.834-2.051-9.485-3.076-13.953-3.076c-6.519,0-11.609,1.941-15.271,5.823s-5.492,9.265-5.492,16.15
		c0,7.227,1.763,12.708,5.291,16.443s8.71,5.603,15.546,5.603c3.711,0,7.336-0.427,10.876-1.282v-16.479h-11.975V108.032z"/>
	<path fill="#636464" d="M477.054,113.818v22.266h-6.225v-53.54h14.685c6.567,0,11.42,1.258,14.557,3.772
		c3.137,2.515,4.706,6.299,4.706,11.353c0,7.081-3.589,11.865-10.767,14.355l14.538,24.06h-7.36l-12.964-22.266H477.054z
		 M477.054,108.471h8.533c4.395,0,7.617-0.873,9.668-2.618s3.076-4.364,3.076-7.855c0-3.54-1.044-6.091-3.131-7.654
		C493.112,88.782,489.762,88,485.147,88h-8.094V108.471z"/>
	<path fill="#636464" d="M595.128,136.083l-6.665-17.029h-21.46l-6.592,17.029h-6.299l21.167-53.76h5.237l21.057,53.76H595.128z
		 M586.522,113.452l-6.227-16.589c-0.805-2.1-1.636-4.675-2.49-7.727c-0.537,2.344-1.306,4.92-2.307,7.727l-6.299,16.589H586.522z"
		/>
	<path fill="#636464" d="M687.165,98.144c0,5.42-1.85,9.589-5.548,12.506c-3.699,2.918-8.991,4.376-15.876,4.376h-6.299v21.057
		h-6.225v-53.54h13.879C680.476,82.543,687.165,87.744,687.165,98.144z M659.442,109.68h5.604c5.518,0,9.509-0.891,11.975-2.673
		c2.466-1.782,3.699-4.638,3.699-8.569c0-3.54-1.16-6.176-3.479-7.91c-2.32-1.733-5.934-2.6-10.84-2.6h-6.959V109.68z"/>
	<path fill="#636464" d="M783.302,136.083h-6.225v-25.195h-28.199v25.195h-6.225v-53.54h6.225v22.778h28.199V82.543h6.225V136.083z"
		/>
	<path fill="#636464" d="M842.27,136.083v-53.54h6.225v53.54H842.27z"/>
	<path fill="#636464" d="M930.386,87.341c-5.884,0-10.528,1.959-13.934,5.877c-3.406,3.919-5.109,9.284-5.109,16.095
		c0,7.007,1.643,12.421,4.926,16.242s7.965,5.731,14.045,5.731c3.734,0,7.995-0.671,12.78-2.014v5.457
		c-3.711,1.392-8.289,2.087-13.733,2.087c-7.886,0-13.971-2.393-18.255-7.178c-4.285-4.785-6.427-11.584-6.427-20.398
		c0-5.517,1.03-10.351,3.094-14.502c2.063-4.15,5.041-7.348,8.936-9.595c3.895-2.246,8.479-3.369,13.752-3.369
		c5.614,0,10.521,1.025,14.721,3.076l-2.637,5.347C938.491,88.293,934.438,87.341,930.386,87.341z"/>
	<path fill="#636464" d="M414.681,202.801c0,8.838-2.398,15.595-7.196,20.27c-4.797,4.675-11.7,7.013-20.709,7.013h-14.831v-53.54
		h16.406c8.324,0,14.795,2.307,19.408,6.921C412.374,188.08,414.681,194.525,414.681,202.801z M408.089,203.021
		c0-6.982-1.752-12.244-5.255-15.784c-3.504-3.54-8.71-5.31-15.619-5.31h-9.046v42.774h7.581c7.422,0,13.001-1.825,16.735-5.476
		C406.222,215.576,408.089,210.175,408.089,203.021z"/>
	<path fill="#636464" d="M488.63,230.084h-29.846v-53.54h29.846v5.53h-23.621v17.249h22.193v5.493h-22.193v19.702h23.621V230.084z"
		/>
	<path fill="#636464" d="M562.872,215.838c0,4.713-1.709,8.387-5.127,11.023s-8.057,3.955-13.916,3.955
		c-6.348,0-11.23-0.817-14.648-2.453v-6.006c2.197,0.928,4.59,1.66,7.178,2.197s5.151,0.805,7.69,0.805
		c4.15,0,7.275-0.787,9.375-2.361c2.1-1.575,3.149-3.766,3.149-6.574c0-1.854-0.372-3.374-1.117-4.559s-1.99-2.276-3.735-3.277
		s-4.4-2.137-7.965-3.406c-4.98-1.782-8.539-3.894-10.675-6.335c-2.137-2.441-3.204-5.627-3.204-9.558c0-4.125,1.55-7.41,4.65-9.851
		c3.101-2.441,7.202-3.662,12.305-3.662c5.322,0,10.217,0.977,14.686,2.93l-1.941,5.42c-4.419-1.855-8.716-2.783-12.891-2.783
		c-3.296,0-5.872,0.708-7.727,2.124c-1.856,1.416-2.783,3.382-2.783,5.896c0,1.855,0.341,3.375,1.025,4.56
		c0.683,1.184,1.836,2.271,3.46,3.259c1.624,0.989,4.107,2.082,7.452,3.278c5.615,2.002,9.479,4.151,11.591,6.445
		C561.815,209.198,562.872,212.176,562.872,215.838z"/>
	<path fill="#636464" d="M605.987,230.084v-53.54h6.225v53.54H605.987z"/>
	<path fill="#636464" d="M682.609,202.032h18.201v26.038c-2.833,0.903-5.713,1.587-8.643,2.051
		c-2.93,0.463-6.324,0.695-10.182,0.695c-8.105,0-14.416-2.411-18.933-7.232s-6.774-11.578-6.774-20.27
		c0-5.566,1.116-10.443,3.351-14.63c2.233-4.187,5.45-7.385,9.649-9.595c4.199-2.209,9.119-3.314,14.758-3.314
		c5.713,0,11.035,1.05,15.967,3.149l-2.416,5.493c-4.834-2.051-9.485-3.076-13.953-3.076c-6.519,0-11.609,1.941-15.271,5.823
		s-5.492,9.265-5.492,16.15c0,7.227,1.763,12.708,5.291,16.443s8.71,5.603,15.546,5.603c3.711,0,7.336-0.427,10.876-1.281v-16.479
		h-11.975V202.032z"/>
	<path fill="#636464" d="M787.649,230.084h-7.104l-29.261-44.934h-0.293c0.391,5.273,0.586,10.107,0.586,14.502v30.432h-5.749
		v-53.54h7.031l29.187,44.751h0.293c-0.049-0.659-0.159-2.777-0.329-6.354c-0.172-3.576-0.232-6.135-0.184-7.672v-30.726h5.822
		V230.084z"/>
	<path fill="#636464" d="M864.383,230.084h-29.846v-53.54h29.846v5.53h-23.621v17.249h22.193v5.493h-22.193v19.702h23.621V230.084z"
		/>
	<path fill="#636464" d="M914.638,207.818v22.266h-6.225v-53.54h14.685c6.567,0,11.42,1.258,14.557,3.772
		c3.137,2.515,4.706,6.299,4.706,11.353c0,7.081-3.589,11.865-10.767,14.355l14.538,24.061h-7.36l-12.964-22.266H914.638z
		 M914.638,202.472h8.533c4.395,0,7.617-0.873,9.668-2.618s3.076-4.364,3.076-7.855c0-3.54-1.044-6.091-3.131-7.654
		c-2.088-1.562-5.438-2.344-10.053-2.344h-8.094V202.472z"/>
</g>
</svg>
